<svg aria-hidden="true" style="position: absolute; width: 0; height: 0; overflow: hidden;" version="1.1" xmlns="http://www.w3.org/2000/svg" xmlns:xlink="http://www.w3.org/1999/xlink">
<defs>

<symbol id="icon-x-close" viewBox="0 0 32 32">
<path stroke-linejoin="round" stroke-linecap="round" stroke-miterlimit="4" stroke-width="2.6667" d="M24 8l-16 16"></path>
<path stroke-linejoin="round" stroke-linecap="round" stroke-miterlimit="4" stroke-width="2.6667" d="M8 8l16 16"></path>
</symbol>

<symbol id="icon-dropdown" fill="none" viewBox="0 0 16 8 ">
<path d="M4 1.5L8 5.5L12 1.5" stroke-opacity="0.8" stroke-width="1.5" stroke-linecap="round" stroke-linejoin="round" shape-rendering="crispEdges"/>
</symbol>

<symbol id="icon-logout" viewBox="0 0 32 32">
<path stroke-linejoin="round" stroke-linecap="round" stroke-miterlimit="4" stroke-width="1.5" d="M11.867 10.080c0.413-4.8 2.88-6.76 8.28-6.76h0.173c5.96 0 8.347 2.387 8.347 8.347v8.693c0 5.96-2.387 8.347-8.347 8.347h-0.173c-5.36 0-7.827-1.933-8.267-6.653"></path>
<path stroke-linejoin="round" stroke-linecap="round" stroke-miterlimit="4" stroke-width="1.5" d="M2.667 16h17.173"></path>
<path stroke-linejoin="round" stroke-linecap="round" stroke-miterlimit="4" stroke-width="1.5" d="M16.867 11.533l4.467 4.467-4.467 4.467"></path>
</symbol>

<symbol id="icon-log-in-out" viewBox="0 0 32 32">
<path fill="none"  stroke-linejoin="round" stroke-linecap="round" stroke-miterlimit="4" stroke-width="3.2" d="M20 4h1.6c2.24 0 3.36 0 4.216 0.436 0.753 0.383 1.364 0.995 1.748 1.748 0.436 0.856 0.436 1.976 0.436 4.216v11.2c0 2.24 0 3.36-0.436 4.216-0.384 0.753-0.995 1.364-1.748 1.748-0.856 0.436-1.976 0.436-4.216 0.436h-1.6"></path>
<path fill="none"  stroke-linejoin="round" stroke-linecap="round" stroke-miterlimit="4" stroke-width="3.2" d="M13.333 9.333l6.667 6.667M20 16l-6.667 6.667M20 16h-16"></path>
</symbol>

<symbol id="icon-book" viewBox="0 0 32 32">
<path stroke-linejoin="round" stroke-linecap="round" stroke-miterlimit="4" stroke-width="3" d="M29.333 8.267c0-1.493 0-2.24-0.291-2.811-0.256-0.502-0.664-0.91-1.165-1.165-0.571-0.291-1.317-0.291-2.811-0.291h-0.533c-2.987 0-4.48 0-5.621 0.581-1.004 0.511-1.819 1.327-2.331 2.331-0.581 1.141-0.581 2.634-0.581 5.621v15.467l0.133-0.2c0.926-1.389 1.389-2.084 2.001-2.587 0.542-0.445 1.166-0.779 1.837-0.983 0.758-0.23 1.593-0.23 3.262-0.23h1.833c1.494 0 2.24 0 2.811-0.291 0.502-0.256 0.91-0.664 1.165-1.165 0.291-0.57 0.291-1.317 0.291-2.811v-11.467z"></path>
<path stroke-linejoin="round" stroke-linecap="round" stroke-miterlimit="4" stroke-width="3" d="M2.667 8.267c0-1.493 0-2.24 0.291-2.811 0.256-0.502 0.664-0.91 1.165-1.165 0.57-0.291 1.317-0.291 2.811-0.291h0.533c2.987 0 4.48 0 5.621 0.581 1.004 0.511 1.819 1.327 2.331 2.331 0.581 1.141 0.581 2.634 0.581 5.621v15.467l-0.133-0.2c-0.926-1.389-1.389-2.084-2.001-2.587-0.542-0.445-1.166-0.779-1.837-0.983-0.758-0.23-1.593-0.23-3.262-0.23h-1.833c-1.493 0-2.24 0-2.811-0.291-0.502-0.256-0.91-0.664-1.165-1.165-0.291-0.57-0.291-1.317-0.291-2.811v-11.467z"></path>
</symbol>

<symbol id="icon-menu" viewBox="0 0 47 32">
<path  stroke-linejoin="miter" stroke-linecap="round" stroke-miterlimit="4" stroke-width="3.2" d="M8.742 5.188h36.591"></path>
<path  stroke-linejoin="miter" stroke-linecap="round" stroke-miterlimit="4" stroke-width="3.2" d="M8.742 24.582h36.591"></path>
<path  stroke-linejoin="miter" stroke-linecap="round" stroke-miterlimit="4" stroke-width="3.2" d="M19.965 14.885h25.368"></path>
</symbol>

<symbol id="icon-arrow" viewBox="0 0 28 32">
<path fill="#fbfbfb" style="fill: var(--color1, #fbfbfb)" d="M25.236 3.149c-0.145-1.029-1.096-1.747-2.126-1.602l-16.776 2.358c-1.029 0.145-1.747 1.097-1.602 2.126s1.097 1.747 2.126 1.602l14.912-2.096 2.096 14.912c0.145 1.029 1.097 1.747 2.126 1.602s1.747-1.096 1.602-2.126l-2.358-16.776zM4.484 31.604l20.391-27.060-3.007-2.266-20.391 27.060 3.007 2.266z"></path>
</symbol>

<symbol id="icon-check" viewBox="0 0 32 32">
<path fill="#fbfbfb" style="fill: var(--color1, #fbfbfb)" d="M8 13.333l-2.667 2.667 8 8 13.333-13.333-2.667-2.667-10.667 10.667-5.333-5.333z"></path>
</symbol>

<symbol id="icon-mappin" viewBox="0 0 32 32">
<path stroke-linejoin="round" stroke-linecap="round" stroke-miterlimit="4" stroke-width="3" d="M28 13.333c0 9.333-12 17.333-12 17.333s-12-8-12-17.333c0-3.183 1.264-6.235 3.515-8.485s5.303-3.515 8.485-3.515c3.183 0 6.235 1.264 8.485 3.515s3.515 5.303 3.515 8.485z"></path>
<path stroke-linejoin="round" stroke-linecap="round" stroke-miterlimit="4" stroke-width="3" d="M16 17.333c2.209 0 4-1.791 4-4s-1.791-4-4-4c-2.209 0-4 1.791-4 4s1.791 4 4 4z"></path>
</symbol>

<symbol id="icon-man" viewBox="0 0 32 32">
<path fill="#fbfbfb" style="fill: var(--color1, #fbfbfb)" d="M8 0h16c4.418 0 8 3.582 8 8v16c0 4.418-3.582 8-8 8h-16c-4.418 0-8-3.582-8-8v-16c0-4.418 3.582-8 8-8z"></path>
<path  d="M16 9.6c0.849 0 1.663 0.337 2.263 0.937s0.937 1.414 0.937 2.263-0.337 1.663-0.937 2.263c-0.6 0.6-1.414 0.937-2.263 0.937s-1.663-0.337-2.263-0.937c-0.6-0.6-0.937-1.414-0.937-2.263s0.337-1.663 0.937-2.263c0.6-0.6 1.414-0.937 2.263-0.937zM16 17.6c3.536 0 6.4 1.432 6.4 3.2v1.6h-12.8v-1.6c0-1.768 2.864-3.2 6.4-3.2z"></path>
</symbol>

<symbol id="icon-search" viewBox="0 0 32 32">
<path stroke-linejoin="round" stroke-linecap="round" stroke-miterlimit="4" stroke-width="2.6667" d="M14.667 25.333c5.891 0 10.667-4.776 10.667-10.667s-4.776-10.667-10.667-10.667c-5.891 0-10.667 4.776-10.667 10.667s4.776 10.667 10.667 10.667z"></path>
<path stroke-linejoin="round" stroke-linecap="round" stroke-miterlimit="4" stroke-width="2.6667" d="M28.001 28l-5.8-5.8"></path>
</symbol>

<symbol id="icon-x-radio" viewBox="0 0 32 32">
<path fill="none" stroke="#fff" style="stroke: var(--color1, #fff)" stroke-linejoin="round" stroke-linecap="round" stroke-miterlimit="4" stroke-width="2.6667" d="M24 8l-16 16"></path>
<path fill="none" stroke="#fff" style="stroke: var(--color1, #fff)" stroke-linejoin="round" stroke-linecap="round" stroke-miterlimit="4" stroke-width="2.6667" d="M8 8l16 16"></path>
</symbol>

<symbol id="icon-trash" viewBox="0 0 32 32">
<path fill="none"  stroke-linejoin="round" stroke-linecap="round" stroke-miterlimit="4" stroke-width="2.4" d="M4 8h24"></path>
<path fill="none"  stroke-linejoin="round" stroke-linecap="round" stroke-miterlimit="4" stroke-width="2.4" d="M25.335 8v18.667c0 0.707-0.281 1.386-0.781 1.886s-1.178 0.781-1.886 0.781h-13.333c-0.707 0-1.386-0.281-1.886-0.781s-0.781-1.178-0.781-1.886v-18.667M10.668 8v-2.667c0-0.707 0.281-1.386 0.781-1.886s1.178-0.781 1.886-0.781h5.333c0.707 0 1.385 0.281 1.886 0.781s0.781 1.178 0.781 1.886v2.667"></path>
<path fill="none"  stroke-linejoin="round" stroke-linecap="round" stroke-miterlimit="4" stroke-width="2.4" d="M13.332 14.667v8"></path>
<path fill="none"  stroke-linejoin="round" stroke-linecap="round" stroke-miterlimit="4" stroke-width="2.4" d="M18.668 14.667v8"></path>
</symbol>

<symbol id="chevron-left" viewBox="0 0 32 32">
<path d="M14.133 16.947c-0.125-0.124-0.224-0.271-0.292-0.434s-0.103-0.337-0.103-0.513 0.035-0.35 0.103-0.513c0.068-0.163 0.167-0.31 0.292-0.434l6.12-6.107c0.125-0.124 0.224-0.271 0.292-0.434s0.103-0.337 0.103-0.513-0.035-0.35-0.103-0.513c-0.068-0.162-0.167-0.31-0.292-0.434-0.25-0.248-0.588-0.388-0.94-0.388s-0.69 0.139-0.94 0.388l-6.12 6.12c-0.749 0.75-1.17 1.767-1.17 2.827s0.421 2.077 1.17 2.827l6.12 6.12c0.248 0.246 0.583 0.385 0.933 0.387 0.175 0.001 0.349-0.033 0.512-0.099s0.31-0.164 0.435-0.288c0.125-0.124 0.224-0.271 0.292-0.434s0.103-0.337 0.103-0.513-0.035-0.35-0.103-0.513c-0.068-0.163-0.167-0.31-0.292-0.434l-6.12-6.107z"></path>
</symbol>

<symbol id="chevron-double-left" viewBox="0 0 32 32">
 <path d="M14.133 16.947c-0.125-0.124-0.224-0.271-0.292-0.434s-0.103-0.337-0.103-0.513 0.035-0.35 0.103-0.513c0.068-0.163 0.167-0.31 0.292-0.434l6.12-6.107c0.125-0.124 0.224-0.271 0.292-0.434s0.103-0.337 0.103-0.513-0.035-0.35-0.103-0.513c-0.068-0.162-0.167-0.31-0.292-0.434-0.25-0.248-0.588-0.388-0.94-0.388s-0.69 0.139-0.94 0.388l-6.12 6.12c-0.749 0.75-1.17 1.767-1.17 2.827s0.421 2.077 1.17 2.827l6.12 6.12c0.248 0.246 0.583 0.385 0.933 0.387 0.175 0.001 0.349-0.033 0.512-0.099s0.31-0.164 0.435-0.288c0.125-0.124 0.224-0.271 0.292-0.434s0.103-0.337 0.103-0.513-0.035-0.35-0.103-0.513c-0.068-0.163-0.167-0.31-0.292-0.434l-6.12-6.107z"></path>
  <path d="M14.133 16.947c-0.125-0.124-0.224-0.271-0.292-0.434s-0.103-0.337-0.103-0.513 0.035-0.35 0.103-0.513c0.068-0.163 0.167-0.31 0.292-0.434l6.12-6.107c0.125-0.124 0.224-0.271 0.292-0.434s0.103-0.337 0.103-0.513-0.035-0.35-0.103-0.513c-0.068-0.162-0.167-0.31-0.292-0.434-0.25-0.248-0.588-0.388-0.94-0.388s-0.69 0.139-0.94 0.388l-6.12 6.12c-0.749 0.75-1.17 1.767-1.17 2.827s0.421 2.077 1.17 2.827l6.12 6.12c0.248 0.246 0.583 0.385 0.933 0.387 0.175 0.001 0.349-0.033 0.512-0.099s0.31-0.164 0.435-0.288c0.125-0.124 0.224-0.271 0.292-0.434s0.103-0.337 0.103-0.513-0.035-0.35-0.103-0.513c-0.068-0.163-0.167-0.31-0.292-0.434l-6.12-6.107z"
    transform="translate(-6, 0)"></path>
</symbol>

<symbol id="chevron-right" viewBox="0 0 32 32">
<path d="M17.867 16.947c0.125-0.124 0.224-0.271 0.292-0.434s0.103-0.337 0.103-0.513-0.035-0.35-0.103-0.513c-0.068-0.163-0.167-0.31-0.292-0.434l-6.12-6.107c-0.125-0.124-0.224-0.271-0.292-0.434s-0.103-0.337-0.103-0.513c0-0.176 0.035-0.35 0.103-0.513s0.167-0.31 0.292-0.434c0.25-0.248 0.588-0.388 0.94-0.388s0.69 0.139 0.94 0.388l6.12 6.12c0.749 0.75 1.17 1.767 1.17 2.827s-0.421 2.077-1.17 2.827l-6.12 6.12c-0.248 0.246-0.584 0.385-0.933 0.387-0.175 0.001-0.349-0.033-0.512-0.099s-0.31-0.164-0.435-0.288c-0.125-0.124-0.224-0.271-0.292-0.434s-0.103-0.337-0.103-0.513 0.035-0.35 0.103-0.513c0.068-0.163 0.167-0.31 0.292-0.434l6.12-6.107z"></path>
</symbol>

<symbol id="chevron-double-right" viewBox="0 0 32 32">
  <path d="M17.867 16.947c0.125-0.124 0.224-0.271 0.292-0.434s0.103-0.337 0.103-0.513-0.035-0.35-0.103-0.513c-0.068-0.163-0.167-0.31-0.292-0.434l-6.12-6.107c-0.125-0.124-0.224-0.271-0.292-0.434s-0.103-0.337-0.103-0.513c0-0.176 0.035-0.35 0.103-0.513s0.167-0.31 0.292-0.434c0.25-0.248 0.588-0.388 0.94-0.388s0.69 0.139 0.94 0.388l6.12 6.12c0.749 0.75 1.17 1.767 1.17 2.827s-0.421 2.077-1.17 2.827l-6.12 6.12c-0.248 0.246-0.584 0.385-0.933 0.387-0.175 0.001-0.349-0.033-0.512-0.099s-0.31-0.164-0.435-0.288c-0.125-0.124-0.224-0.271-0.292-0.434s-0.103-0.337-0.103-0.513 0.035-0.35 0.103-0.513c0.068-0.163 0.167-0.31 0.292-0.434l6.12-6.107z"></path>
  <path d="M17.867 16.947c0.125-0.124 0.224-0.271 0.292-0.434s0.103-0.337 0.103-0.513-0.035-0.35-0.103-0.513c-0.068-0.163-0.167-0.31-0.292-0.434l-6.12-6.107c-0.125-0.124-0.224-0.271-0.292-0.434s-0.103-0.337-0.103-0.513c0-0.176 0.035-0.35 0.103-0.513s0.167-0.31 0.292-0.434c0.25-0.248 0.588-0.388 0.94-0.388s0.69 0.139 0.94 0.388l6.12 6.12c0.749 0.75 1.17 1.767 1.17 2.827s-0.421 2.077-1.17 2.827l-6.12 6.12c-0.248 0.246-0.584 0.385-0.933 0.387-0.175 0.001-0.349-0.033-0.512-0.099s-0.31-0.164-0.435-0.288c-0.125-0.124-0.224-0.271-0.292-0.434s-0.103-0.337-0.103-0.513 0.035-0.35 0.103-0.513c0.068-0.163 0.167-0.31 0.292-0.434l6.12-6.107z"
    transform="translate(6, 0)"></path>
</symbol>


<symbol id="arrow-in" viewBox="0 0 32 32">
<path fill="none" stroke="#e3e3e3" style="stroke: var(--color3, #e3e3e3)" stroke-linejoin="round" stroke-linecap="round" stroke-miterlimit="4" stroke-width="2.6667" d="M18.667 22.667l6.667-6.667-6.667-6.667"></path>
<path fill="none" stroke="#e3e3e3" style="stroke: var(--color3, #e3e3e3)" stroke-linejoin="round" stroke-linecap="round" stroke-miterlimit="4" stroke-width="2.6667" d="M25.333 16h-18.667"></path>
</symbol>

<symbol id="chevron-down" viewBox="0 0 32 32">
<path fill="none" stroke="#f9f9f9" style="stroke: var(--color2, #f9f9f9)" stroke-linejoin="round" stroke-linecap="round" stroke-miterlimit="4" stroke-width="3" d="M24 20l-8-8-8 8"></path>
</symbol>

<symbol id="pajamas_error" viewBox="0 0 32 32">
<path fill="#e90516" style="fill: var(--color6, #e90516)" d="M16 29c-3.448 0-6.754-1.37-9.192-3.808s-3.808-5.744-3.808-9.192c0-3.448 1.37-6.754 3.808-9.192s5.745-3.808 9.192-3.808c3.448 0 6.754 1.37 9.192 3.808s3.808 5.745 3.808 9.192c0 3.448-1.37 6.754-3.808 9.192s-5.744 3.808-9.192 3.808zM16 32c4.244 0 8.313-1.686 11.314-4.686s4.686-7.070 4.686-11.314c0-4.243-1.686-8.313-4.686-11.314s-7.070-4.686-11.314-4.686c-4.243 0-8.313 1.686-11.314 4.686s-4.686 7.070-4.686 11.314c0 4.244 1.686 8.313 4.686 11.314s7.070 4.686 11.314 4.686zM18 22c0 0.53-0.211 1.039-0.586 1.414s-0.884 0.586-1.414 0.586c-0.53 0-1.039-0.211-1.414-0.586s-0.586-0.884-0.586-1.414c0-0.53 0.211-1.039 0.586-1.414s0.884-0.586 1.414-0.586c0.53 0 1.039 0.211 1.414 0.586s0.586 0.884 0.586 1.414zM17.5 9.5c0-0.398-0.158-0.779-0.439-1.061s-0.663-0.439-1.061-0.439c-0.398 0-0.779 0.158-1.061 0.439s-0.439 0.663-0.439 1.061v7c0 0.398 0.158 0.779 0.439 1.061s0.663 0.439 1.061 0.439c0.398 0 0.779-0.158 1.061-0.439s0.439-0.663 0.439-1.061v-7z"></path>
</symbol>

<symbol id="check-ok" viewBox="0 0 32 32">
<path fill="#30b94d" style="fill: var(--color5, #30b94d)" d="M15 21.76l-5.4-6.081 1.8-2.026 3.601 4.052 7.199-8.105 1.801 2.027-9 10.133z"></path>
<path fill="#30b94d" style="fill: var(--color5, #30b94d)" d="M0 16c0 8.836 7.164 16 16 16s16-7.164 16-16c0-8.836-7.164-16-16-16s-16 7.164-16 16zM16 29.091c-1.719 0-3.421-0.339-5.010-0.996s-3.031-1.622-4.247-2.838c-1.216-1.216-2.18-2.659-2.838-4.247s-0.997-3.29-0.997-5.010c0-1.719 0.339-3.421 0.997-5.010s1.622-3.031 2.838-4.247c1.216-1.216 2.659-2.18 4.247-2.838s3.291-0.997 5.010-0.997c3.472 0 6.802 1.379 9.257 3.834s3.834 5.785 3.834 9.257c0 3.472-1.379 6.802-3.834 9.257s-5.785 3.834-9.257 3.834z"></path>
</symbol>

<symbol id="icon-eye" viewBox="0 0 32 32">
<path fill="none" stroke="#f9f9f9" style="stroke: var(--color1, #f9f9f9)" stroke-linejoin="round" stroke-linecap="round" stroke-miterlimit="4" stroke-width="2.0800" d="M1.333 16c0 0 5.333-10.667 14.667-10.667s14.667 10.667 14.667 10.667-5.333 10.667-14.667 10.667c-9.333 0-14.667-10.667-14.667-10.667z"></path>
<path fill="none" stroke="#f9f9f9" style="stroke: var(--color1, #f9f9f9)" stroke-linejoin="round" stroke-linecap="round" stroke-miterlimit="4" stroke-width="2.0800" d="M16 20c2.209 0 4-1.791 4-4s-1.791-4-4-4c-2.209 0-4 1.791-4 4s1.791 4 4 4z"></path>
</symbol>

<symbol id="eye-off" viewBox="0 0 32 32">
<path fill="none" stroke="#f9f9f9" style="stroke: var(--color2, #f9f9f9)" stroke-linejoin="round" stroke-linecap="round" stroke-miterlimit="4" stroke-width="2.0800" d="M23.92 23.92c-2.279 1.737-5.055 2.7-7.92 2.747-9.333 0-14.667-10.667-14.667-10.667 1.659-3.091 3.959-5.791 6.747-7.92M13.2 5.653c0.918-0.215 1.857-0.322 2.8-0.32 9.333 0 14.667 10.667 14.667 10.667-0.809 1.514-1.775 2.94-2.88 4.253M18.827 18.827c-0.366 0.393-0.808 0.708-1.299 0.927s-1.020 0.336-1.557 0.346c-0.537 0.009-1.071-0.089-1.569-0.291s-0.95-0.501-1.33-0.88c-0.38-0.38-0.679-0.832-0.88-1.33s-0.3-1.032-0.29-1.569c0.009-0.537 0.127-1.067 0.346-1.558s0.534-0.932 0.927-1.298"></path>
<path fill="none" stroke="#f9f9f9" style="stroke: var(--color2, #f9f9f9)" stroke-linejoin="round" stroke-linecap="round" stroke-miterlimit="4" stroke-width="2.0800" d="M1.333 1.333l29.333 29.333"></path>
</symbol>

<symbol id="icon-logo" viewBox="0 0 79 32">
<path fill="#f9f9f9" style="fill: var(--color1, #f9f9f9)" d="M0 20.706v-20.706h24.264c3.299 0 6.512 1.051 9.173 3.001 1.591 1.166 2.861 2.715 3.693 4.503l2.807 6.034c1.084-2.647 2.443-5.173 4.055-7.536l0.139-0.204c0.463-0.679 0.992-1.31 1.58-1.884l1.196-1.168c0.779-0.762 1.704-1.358 2.719-1.755l0.103-0.040c1.608-0.629 3.32-0.951 5.047-0.951h24.283v20.706h-79.059z"></path>
<path fill="#f9f9f9" style="fill: var(--color1, #f9f9f9)" d="M0 24.471h79.059v7.529h-79.059v-7.529z"></path>
</symbol>

<symbol id="icon-mobile-menu" viewBox="0 0 32 32">
<path fill="none" stroke="#f9f9f9" style="stroke: var(--color1, #f9f9f9)" stroke-linejoin="round" stroke-linecap="round" stroke-miterlimit="4" stroke-width="2.2857" d="M4 16h24M4 8h24M12 24h16"></path>
</symbol>

<symbol id="icon-arrow-right" viewBox="0 0 32 32">
<path stroke-linejoin="round" stroke-linecap="round" stroke-miterlimit="4" stroke-width="2.2857" d="M5.334 16h21.333"></path>
<path stroke-linejoin="round" stroke-linecap="round" stroke-miterlimit="4" stroke-width="2.2857" d="M18.666 8l8 8-8 8"></path>
</symbol>

<symbol id="icon-arrow-left" viewBox="0 0 33 32">
<path stroke-linejoin="round" stroke-linecap="round" stroke-miterlimit="4" stroke-width="2.6667" d="M27.333 16h-21.333"></path>
<path stroke-linejoin="round" stroke-linecap="round" stroke-miterlimit="4" stroke-width="2.6667" d="M14 24l-8-8 8-8"></path>
</symbol>


<symbol id="icon-hourglass" viewBox="0 0 32 32">
<path fill="none"  stroke-linejoin="round" stroke-linecap="round" stroke-miterlimit="4" stroke-width="4" d="M16 16l-5.697-4.748c-0.846-0.705-1.27-1.058-1.574-1.49-0.27-0.383-0.47-0.811-0.591-1.263-0.137-0.511-0.137-1.061-0.137-2.163v-3.669M16 16l5.697-4.748c0.846-0.705 1.27-1.058 1.574-1.49 0.27-0.383 0.47-0.811 0.591-1.263 0.137-0.511 0.137-1.061 0.137-2.163v-3.669M16 16l-5.697 4.748c-0.846 0.705-1.27 1.058-1.574 1.49-0.27 0.383-0.47 0.811-0.591 1.263-0.137 0.51-0.137 1.061-0.137 2.163v3.669M16 16l5.697 4.748c0.846 0.705 1.27 1.058 1.574 1.49 0.27 0.383 0.47 0.811 0.591 1.263 0.137 0.51 0.137 1.061 0.137 2.163v3.669"></path>
<path fill="none"  stroke-linejoin="round" stroke-linecap="round" stroke-miterlimit="4" stroke-width="4" d="M5.334 2.667h21.333M5.334 29.333h21.333"></path>
</symbol>

<symbol id="pie-chart" viewBox="0 0 32 32">
<path fill="none" opacity="0.8"  stroke-linejoin="round" stroke-linecap="round" stroke-miterlimit="4" stroke-width="3.2" d="M22.933 18.667c0.369 0 0.554 0 0.704 0.082 0.124 0.068 0.238 0.195 0.293 0.324 0.067 0.157 0.050 0.324 0.016 0.659-0.174 1.733-0.771 3.404-1.744 4.861-1.172 1.754-2.838 3.121-4.787 3.929s-4.094 1.019-6.163 0.607-3.97-1.428-5.462-2.919c-1.492-1.492-2.508-3.392-2.919-5.462s-0.2-4.214 0.607-6.163c0.807-1.949 2.175-3.615 3.929-4.787 1.457-0.974 3.128-1.57 4.861-1.744 0.334-0.034 0.502-0.050 0.659 0.016 0.13 0.055 0.257 0.17 0.324 0.293 0.082 0.15 0.082 0.334 0.082 0.704v8.533c0 0.373 0 0.56 0.073 0.703 0.064 0.125 0.166 0.228 0.291 0.291 0.143 0.073 0.329 0.073 0.703 0.073h8.533z"></path>
<path fill="none"  stroke-linejoin="round" stroke-linecap="round" stroke-miterlimit="4" stroke-width="3.2" d="M18.667 3.733c0-0.369 0-0.554 0.082-0.704 0.068-0.123 0.195-0.238 0.324-0.293 0.157-0.067 0.324-0.050 0.659-0.016 2.438 0.245 4.73 1.323 6.478 3.071s2.826 4.040 3.071 6.478c0.034 0.334 0.050 0.502-0.016 0.659-0.055 0.13-0.17 0.257-0.293 0.324-0.15 0.082-0.334 0.082-0.704 0.082h-8.533c-0.373 0-0.56 0-0.703-0.073-0.125-0.064-0.228-0.166-0.291-0.291-0.073-0.143-0.073-0.329-0.073-0.703v-8.533z"></path>
</symbol>

<symbol id="icon-ellipse" viewBox="0 0 47 32">
<path fill="#30b94d" style="fill: var(--color2, #30b94d)" d="M0.459 5.449c-0.017-2.723 2.181-4.968 4.895-4.74 7.99 0.671 15.756 3.089 22.74 7.108s12.978 9.518 17.573 16.088c1.561 2.232 0.725 5.26-1.638 6.614s-5.355 0.516-6.959-1.684c-3.696-5.069-8.425-9.323-13.894-12.47s-11.524-5.097-17.764-5.745c-2.709-0.281-4.936-2.447-4.954-5.17z"></path>
</symbol>
</defs>
</svg>
